<svg xmlns="http://www.w3.org/2000/svg" viewBox="0 0 64 64" role="img" aria-labelledby="title desc">
  <title id="title">GitHub</title>
  <desc id="desc">Local transparent SVG mark for GitHub.</desc>
  <circle cx="32" cy="32" r="29" fill="#181717"/><path fill="#fff" d="M32 14c-10 0-18 8-18 18 0 8 5.2 14.7 12.3 17 .9.2 1.2-.4 1.2-.9v-3.5c-5 1.1-6-2.1-6-2.1-.8-2.1-2-2.7-2-2.7-1.6-1.1.1-1.1.1-1.1 1.8.1 2.8 1.9 2.8 1.9 1.6 2.8 4.3 2 5.3 1.5.2-1.2.6-2 1.2-2.5-4-.5-8.2-2-8.2-8.9 0-2 .7-3.6 1.9-4.9-.2-.5-.8-2.3.2-4.8 0 0 1.5-.5 5 1.9a17 17 0 0 1 9.1 0c3.5-2.4 5-1.9 5-1.9 1 2.5.4 4.3.2 4.8 1.2 1.3 1.9 3 1.9 4.9 0 6.9-4.2 8.4-8.2 8.9.7.6 1.3 1.7 1.3 3.4v5.1c0 .5.3 1.1 1.2.9A18 18 0 0 0 50 32c0-10-8-18-18-18Z"/>
</svg>
