<svg xmlns="http://www.w3.org/2000/svg" width="720" height="820" viewBox="0 0 720 820" role="img" aria-labelledby="title desc">
  <title id="title">Leanne portrait placeholder</title>
  <desc id="desc">A neutral editorial portrait placeholder to be replaced with Leanne Ganado's photo.</desc>
  <rect width="720" height="820" fill="#fffdf8"/>
  <circle cx="360" cy="292" r="144" fill="#d8d2c3"/>
  <path d="M151 820c11-208 76-330 209-330s198 122 209 330H151Z" fill="#171714"/>
  <path d="M266 407c26 35 58 52 94 52 36 0 68-17 94-52v112c-26 30-57 45-94 45-37 0-68-15-94-45V407Z" fill="#d8d2c3"/>
  <path d="M223 294c0-93 57-173 137-173s137 80 137 173c0 109-52 191-137 191s-137-82-137-191Z" fill="#e5c7ad"/>
  <path d="M218 309c-18-143 57-221 142-221 83 0 160 76 144 220-34-16-62-47-76-84-40 52-111 83-210 85Z" fill="#302e2a"/>
  <circle cx="310" cy="318" r="8" fill="#171714"/>
  <circle cx="410" cy="318" r="8" fill="#171714"/>
  <path d="M329 375c20 13 42 13 62 0" fill="none" stroke="#8d5d54" stroke-width="7" stroke-linecap="round"/>
  <path d="M255 552 360 650 465 552l72 268H183l72-268Z" fill="#f3f0e8"/>
  <path d="M218 552 360 675 502 552" fill="none" stroke="#d8d2c3" stroke-width="8"/>
  <rect x="202" y="734" width="316" height="54" rx="27" fill="#eee72b" stroke="#171714" stroke-width="2"/>
  <text x="360" y="769" text-anchor="middle" font-family="Arial, Helvetica, sans-serif" font-size="20" font-weight="700" fill="#171714">PORTRAIT PLACEHOLDER</text>
</svg>
